<?xml version="1.0" encoding="utf-8"?>
<!-- Generator: Adobe Illustrator 22.0.0, SVG Export Plug-In . SVG Version: 6.00 Build 0)  -->
<svg version="1.1" id="Layer_1" xmlns="http://www.w3.org/2000/svg" xmlns:xlink="http://www.w3.org/1999/xlink" x="0px" y="0px"
	 viewBox="0 0 311.8 311.8" style="enable-background:new 0 0 311.8 311.8;" xml:space="preserve">
<style type="text/css">
	.st0{fill:url(#SVGID_1_);}
	.st1{fill:url(#SVGID_2_);}
	.st2{fill:url(#SVGID_3_);}
	.st3{fill:url(#SVGID_4_);}
	.st4{fill:url(#SVGID_5_);}
	.st5{fill:url(#SVGID_6_);}
	.st6{fill:url(#SVGID_7_);}
	.st7{fill:url(#SVGID_8_);}
</style>
<g>
	
		<linearGradient id="SVGID_1_" gradientUnits="userSpaceOnUse" x1="74.3672" y1="427.2207" x2="410.809" y2="161.4806" gradientTransform="matrix(1 0 0 -1 0 409.8123)">
		<stop  offset="0" style="stop-color:#001689"/>
		<stop  offset="1" style="stop-color:#E1251B"/>
	</linearGradient>
	<path class="st0" d="M302.3,98.2c-0.9,4.7-1.5,9.5-2.7,14.2c-4.1,16.3-12.7,29.9-25.3,41.1c-2,1.8-2.9,3.5-2.9,6.3
		c0.2,9.3,0,18.6,0.1,27.9c0,2.9-0.7,5.3-3.5,6.5c-2.9,1.2-5.1,0-7.1-2.1c-6.3-6.3-12.6-12.7-19-18.9c-0.7-0.7-2.2-1.2-3.1-1
		c-12.2,2.8-24.5,2.4-36.9,2c-15-0.5-28.8-4.7-41.3-12.9c-20.7-13.6-33.6-32.5-37.3-57.1c-4.4-30,5.1-55.3,27.7-75.4
		c15-13.3,32.9-19.8,52.9-20.2c10.5-0.2,21.1-0.7,31.5,1.6c26,5.5,45.3,20.1,57.7,43.6c5,9.4,7.8,19.5,8.8,30.1
		c0,0.6,0.3,1.1,0.4,1.6C302.3,89.8,302.3,94,302.3,98.2z M260.1,175.3c0-5.9,0.4-11-0.1-16.1c-0.6-6.2,1.7-10.3,6.5-14.3
		c13.8-11.6,21.6-26.8,23.8-44.6c2.4-19.8-2.6-37.7-15.1-53.3C263.8,32.8,249,24,231,21.1c-11.5-1.8-23.2-1.8-34.7-0.3
		c-7.1,0.9-14.3,2.8-20.7,5.8c-23.2,10.7-37.4,28.9-41.2,54.3c-4,27,5.2,49.4,26.2,66.6c11.8,9.7,25.6,14.7,40.9,15.3
		c12.2,0.4,24.5,1.1,36.5-2.4c4-1.2,7.1-0.4,9.9,2.7C251.7,167.1,255.7,170.9,260.1,175.3z"/>
	
		<linearGradient id="SVGID_2_" gradientUnits="userSpaceOnUse" x1="-27.8927" y1="297.7539" x2="308.549" y2="32.0137" gradientTransform="matrix(1 0 0 -1 0 409.8123)">
		<stop  offset="0" style="stop-color:#001689"/>
		<stop  offset="1" style="stop-color:#E1251B"/>
	</linearGradient>
	<path class="st1" d="M110,300.7c-6.4-6.2-13.2-12-19.1-18.7c-4.5-5.1-9.3-7-16-6.6c-7.9,0.6-16,0.2-23.9,0.1
		c-23.3-0.1-40.7-17.5-40.7-40.8c-0.1-28.7-0.1-57.4,0-86.1c0-23.3,17.5-40.7,40.8-40.7c18.3-0.1,36.7,0,55,0c1.2,0,2.5,0.1,3.6,0.5
		c2.4,0.8,3.7,2.7,3.7,5.2c0,2.5-1.3,4.4-3.7,5.2c-1.2,0.4-2.6,0.5-3.9,0.5c-18.1,0-36.1,0-54.2,0c-17.6,0-29.9,12.4-29.9,30
		c0,28.3,0,56.7,0,85c0,17.6,12.4,29.9,30,29.9c11.2,0,22.4,0.1,33.7,0c3.1,0,5.2,1,7.3,3.4c4.1,4.6,8.6,8.7,13.5,13.5
		c0-3.5,0-6.4,0-9.3c0-5.6,2-7.6,7.5-7.6c19.4,0,38.8,0,58.2,0c17.8,0,30.1-12.3,30.1-30.1c0-12,0-24,0-35.9c0-1.3,0.1-2.7,0.5-3.9
		c0.9-2.4,2.8-3.6,5.3-3.6c2.5,0.1,4.4,1.4,5.1,3.8c0.3,1.1,0.4,2.2,0.4,3.4c0,12.6,0.1,25.1,0,37.6c-0.2,19.3-12.8,34.9-31.6,39.1
		c-3.2,0.7-6.6,0.9-9.9,0.9c-17.8,0.1-35.6,0-53.3,0.1c-0.2,0-0.4,0-1,0.1c0,2.4,0,5,0,7.5c0,3.2-0.2,6.5,0,9.7
		c0.2,3.5-0.9,6.1-4,7.8C112.3,300.7,111.2,300.7,110,300.7z"/>
	
		<linearGradient id="SVGID_3_" gradientUnits="userSpaceOnUse" x1="-14.5738" y1="314.6163" x2="321.8679" y2="48.8762" gradientTransform="matrix(1 0 0 -1 0 409.8123)">
		<stop  offset="0" style="stop-color:#001689"/>
		<stop  offset="1" style="stop-color:#E1251B"/>
	</linearGradient>
	<path class="st2" d="M106.7,196.8c-19.2,0-38.4,0-57.6,0c-0.9,0-1.9,0-2.8-0.1c-3-0.4-5.1-2.7-5.2-5.5c-0.1-2.9,2.2-5.3,5.3-5.7
		c0.9-0.1,1.9-0.1,2.8-0.1c38.5,0,77,0,115.5,0c5.2,0,8,1.9,8.1,5.6c0.1,3.8-2.8,5.8-8.1,5.8C145.3,196.8,126,196.8,106.7,196.8z"/>
	
		<linearGradient id="SVGID_4_" gradientUnits="userSpaceOnUse" x1="-34.4106" y1="289.502" x2="302.0311" y2="23.7617" gradientTransform="matrix(1 0 0 -1 0 409.8123)">
		<stop  offset="0" style="stop-color:#001689"/>
		<stop  offset="1" style="stop-color:#E1251B"/>
	</linearGradient>
	<path class="st3" d="M95.7,217.4c15.9,0,31.7,0,47.6,0c4.6,0,7.4,2.5,6.9,6.3c-0.4,2.8-2,4.4-4.8,4.9c-1,0.2-2.1,0.1-3.1,0.1
		c-31.1,0-62.1,0-93.2,0c-5.2,0-8-1.9-8-5.6c-0.1-3.8,2.8-5.8,8.1-5.8C64.7,217.4,80.2,217.4,95.7,217.4z"/>
	
		<linearGradient id="SVGID_5_" gradientUnits="userSpaceOnUse" x1="-6.1526" y1="325.2781" x2="330.2891" y2="59.538" gradientTransform="matrix(1 0 0 -1 0 409.8123)">
		<stop  offset="0" style="stop-color:#001689"/>
		<stop  offset="1" style="stop-color:#E1251B"/>
	</linearGradient>
	<path class="st4" d="M88.3,164.9c-13.1,0-26.2,0-39.3,0c-0.8,0-1.7,0-2.6-0.1c-3.1-0.4-5.4-2.8-5.3-5.7c0-2.9,2.3-5.2,5.4-5.6
		c0.8-0.1,1.5-0.1,2.3-0.1c26.4,0,52.9,0,79.3,0c0.9,0,1.7,0,2.6,0.1c3,0.5,5.1,2.9,5,5.6c0,2.8-2.2,5.1-5.2,5.6
		c-0.9,0.1-1.9,0.1-2.9,0.1C114.5,164.9,101.4,164.9,88.3,164.9z"/>
	
		<linearGradient id="SVGID_6_" gradientUnits="userSpaceOnUse" x1="-6.9843" y1="324.2251" x2="329.4574" y2="58.485" gradientTransform="matrix(1 0 0 -1 0 409.8123)">
		<stop  offset="0" style="stop-color:#001689"/>
		<stop  offset="1" style="stop-color:#E1251B"/>
	</linearGradient>
	<path class="st5" d="M172.7,223c0.1,3-2.6,5.7-5.6,5.8c-2.9,0.1-5.7-2.6-5.8-5.6c-0.1-3,2.6-5.7,5.6-5.8
		C169.9,217.4,172.7,220,172.7,223z"/>
	
		<linearGradient id="SVGID_7_" gradientUnits="userSpaceOnUse" x1="80.8688" y1="435.4521" x2="417.3105" y2="169.7118" gradientTransform="matrix(1 0 0 -1 0 409.8123)">
		<stop  offset="0" style="stop-color:#001689"/>
		<stop  offset="1" style="stop-color:#E1251B"/>
	</linearGradient>
	<path class="st6" d="M208.1,102c0-2.2-0.1-4.4,0-6.6c0.2-4.7,2.8-8.3,7.2-9.9c0.9-0.3,1.8-0.6,2.7-0.9c5.9-2.1,9.4-8.2,8.2-14.3
		c-1.2-6.1-6.7-10.6-12.9-10.3c-6.3,0.2-11.3,4.8-12.2,11.1c-0.1,0.8-0.3,1.7-0.4,2.5c-0.7,3.2-3,4.9-6.1,4.7
		c-2.9-0.3-4.9-2.5-5-5.6c-0.4-9.8,7.1-20.1,16.6-22.9c16.5-4.9,32,7,31.5,24.2c-0.2,9.2-6.7,18.2-15.6,21.2c-2.3,0.8-2.9,1.8-2.8,4
		c0.2,3.1,0.1,6.3,0,9.4c-0.1,3.9-2.5,6.5-5.7,6.5c-3.3,0-5.6-2.6-5.6-6.5C208.1,106.4,208.1,104.2,208.1,102
		C208.1,102,208.1,102,208.1,102z"/>
	
		<linearGradient id="SVGID_8_" gradientUnits="userSpaceOnUse" x1="55.2381" y1="403.0022" x2="391.6799" y2="137.262" gradientTransform="matrix(1 0 0 -1 0 409.8123)">
		<stop  offset="0" style="stop-color:#001689"/>
		<stop  offset="1" style="stop-color:#E1251B"/>
	</linearGradient>
	<path class="st7" d="M213.7,126.4c3,0,5.7,2.6,5.7,5.6c0,3-2.6,5.6-5.7,5.6c-3.1,0-5.6-2.5-5.6-5.6
		C208.1,128.9,210.7,126.4,213.7,126.4z"/>
</g>
</svg>
