<?xml version="1.0" encoding="utf-8"?>
<!-- Generator: Adobe Illustrator 22.0.0, SVG Export Plug-In . SVG Version: 6.00 Build 0)  -->
<svg version="1.1" id="Layer_1" xmlns="http://www.w3.org/2000/svg" xmlns:xlink="http://www.w3.org/1999/xlink" x="0px" y="0px"
	 viewBox="0 0 311.8 311.8" style="enable-background:new 0 0 311.8 311.8;" xml:space="preserve">
<style type="text/css">
	.st0{fill:url(#SVGID_1_);}
	.st1{fill:url(#SVGID_2_);}
	.st2{fill:url(#SVGID_3_);}
	.st3{fill:url(#SVGID_4_);}
	.st4{fill:url(#SVGID_5_);}
</style>
<g>
	
		<linearGradient id="SVGID_1_" gradientUnits="userSpaceOnUse" x1="7.7903" y1="259.8917" x2="268.9472" y2="-24.0215" gradientTransform="matrix(1 0 0 -1 0 313.8123)">
		<stop  offset="0" style="stop-color:#001689"/>
		<stop  offset="1" style="stop-color:#E1251B"/>
	</linearGradient>
	<path class="st0" d="M6.8,297c1.4-2.4,3.5-3,6.1-2.9c10.9,0.1,21.9,0,32.8,0c1,0,2.1,0,3.4,0c0-1.3,0-2.3,0-3.4
		c0-16.4-0.1-32.9,0-49.3c0.1-18.8,8.1-33.4,23.9-43.8c0.9-0.6,1.6-2.1,1.7-3.2c0.3-13.3,3.9-16.9,17.3-16.9c10.4,0,20.7,0,31.1,0
		c1.1,0,2.1,0,3.5,0c0-5.5,0-10.8-0.1-16.1c0-0.6-0.6-1.4-1.1-1.8c-16-10.2-25.3-24.7-27.5-43.5c0-0.4-0.3-0.7-0.5-1.2
		c-4.3,0-8.5,0-12.8,0c-7.9-0.1-13.3-5.3-13.5-13.2c-0.1-4.7-0.1-9.5,0-14.2c0-7.6,3.1-11.8,10.5-14.1c0.2-3.9,0.3-7.8,0.7-11.7
		c3.2-30.3,31.1-55.7,61.6-55.8c10.1-0.1,20.2-0.3,30.2,0.7c13.6,1.3,25.4,7.3,35.3,16.7c2.2,2.1,2.4,4.5,0.7,6.4
		c-1.7,1.9-4.3,2-6.5,0c-11.8-10.9-25.8-15.7-41.7-15.1c-8.1,0.3-16.3-0.2-24.4,0.7c-23,2.5-44,23.8-46.5,46.9
		c-0.4,3.6-0.4,7.2-0.6,11c2.6,0,4.6,0,6.8,0c0.1-0.7,0.2-1.4,0.3-2.1c0.8-5.2,4.6-8.7,9.8-9c3.1-0.1,6.2-0.2,9.3,0
		c2.1,0.1,3.6-0.5,5.1-2.1c4.8-5.2,10.6-9,17.5-10.9c7.1-2,11.9,2.4,10.8,9.6c-0.3,2.2,0.3,4.4,0.5,7.4c2.8-1.6,4.7-2.6,6.6-3.7
		c5-2.9,10.1-5.8,15.1-8.6c4-2.3,7.3-1.8,10.5,1.5c4.6,4.8,10.3,7,16.9,6.9c0.7,0,1.4,0,2,0c7.8,0,11.3,3.2,12.2,11.3c1,0,2,0,3,0
		c1,0,2.1,0,3.4,0c0.7-6.4-0.1-12.4-1.7-18.2c-0.9-3.2-2.3-6.3-3.5-9.5c-1.1-2.9-0.3-5.3,2.1-6.3c2.3-1,4.5,0,5.9,2.8
		c4.4,9.1,6.5,18.8,6.2,28.9c0,1.8,0.4,2.6,2.2,3.3c5.3,1.9,8.4,5.9,8.6,11.6c0.2,5.6,0.1,11.2,0,16.8c0,3.6-1.6,6.4-4.1,9
		c-0.9,0.9-1.6,2.2-1.8,3.4c-2.1,12.9-12.5,22.7-25.6,23.8c-1.9,0.2-3.1,0.9-4.1,2.5c-4.5,7.3-10.5,13.2-17.7,17.7
		c-1.6,1-2.3,2-2.2,3.9c0.2,4.7,0.1,9.5,0.1,14.7c1.1,0,2.2,0,3.2,0c11.6,0,23.3,0,34.9,0c8.6,0,13.7,5.1,13.7,13.7
		c0,1,0.1,1.9,0,2.9c-0.3,1.9,0.6,2.9,2.2,3.9c14.9,9.9,23,23.8,23.4,41.7c0.3,16.8,0.1,33.6,0.1,50.5c0,1.2,0,2.3,0,4
		c1.1,0,2.1,0,3.1,0c11,0,22.1,0.1,33.1,0c2.6,0,4.7,0.6,6.1,3c0,1.9,0,3.9,0,5.8c-99.2,0-198.4,0-297.6,0
		C6.8,300.9,6.8,298.9,6.8,297z M227.6,273.8c0-0.9,0.1-1.5,0.1-2c0-26.9,0-53.8,0-80.6c0-3.8-1.3-4.9-5.4-4.9
		c-44.4,0-88.7,0-133.1,0c-4.5,0-5.6,1.1-5.6,5.7c0,26.3,0,52.6,0,78.9c0,0.9,0,1.9,0,3.1c1.4,0,2.4,0,3.4,0c12,0,24,0,36,0
		c3.7,0,5.7,1.5,5.8,4.3c0.1,2.9-2,4.4-5.9,4.4c-11.3,0-22.7,0-34,0c-3.9,0-7.7,0-11.9,0c0.2,1,0.3,1.7,0.5,2.4
		c1.9,5.8,6.9,9.2,13.7,9.2c42.9,0,85.8,0,128.8,0c0.7,0,1.4,0,2,0c6.3-0.5,11.6-5.4,12-11.6c-1.1,0-2.3,0-3.4,0
		c-27.8,0-55.6,0-83.4,0c-1,0-2,0.1-2.9-0.1c-2.4-0.4-3.8-1.9-3.8-4.4c0-2.4,1.4-3.7,3.7-4.2c0.9-0.2,1.9-0.1,2.9-0.1
		c22.9,0,45.7,0,68.6,0C219.6,273.8,223.4,273.8,227.6,273.8z M195.6,138.9c-8.3,0-15.8,0-23.3,0.1c-0.7,0-1.6,0.9-2,1.7
		c-2.1,3.8-5.2,6.4-9.5,6.9c-3.5,0.4-7.2,0.4-10.7-0.1c-6.7-1.1-10.7-6.6-10.4-13.3c0.3-6.7,4.9-11.6,11.6-12.3
		c2.2-0.2,4.4-0.1,6.7-0.1c5.3,0,9.2,2.3,12.1,6.7c0.5,0.8,1.9,1.6,2.9,1.7c8.5,0.1,17.1,0,25.6,0.1c1.6,0,2.4-0.6,3-2
		c2.3-5.9,3.5-12.1,3.5-18.4c0-11.6,0-23.2,0-34.8c0-4.5,0-4.6-4.4-4.5c-8.7,0.2-16.5-2.2-22.8-8.3c-1.3-1.2-2.2-0.7-3.3,0
		c-5.9,3.4-11.7,6.7-17.6,10.1c-6.6,3.8-11.2,2.4-14.1-4.7c-1.3-3.1-1.6-6.6-2.3-10c-5.2,1.6-9.7,5-13.4,9.2c-2.3,2.6-5,3.8-8.4,3.7
		c-3.1-0.1-6.2,0.1-9.3-0.1c-2.4-0.1-3.1,0.9-3.1,3.2c0.1,12.4-0.3,24.8,0.2,37.1c0.2,5.7,1.3,11.6,3.2,16.9
		c8.4,22.7,33.9,35.8,57.5,30.2C178.8,155.3,188,149,195.6,138.9z M74.7,207.3C65,213.9,58.1,226.8,58,239
		c-0.1,17.7-0.1,35.4-0.1,53c0,0.6,0.2,1.3,0.2,1.9c4.8,0,9.3,0,13.6,0c-1.2-3.4-2.7-6.7-3.3-10.1c-1.1-5.9,0.6-8.3,6.3-10.2
		C74.7,251.6,74.7,229.6,74.7,207.3z M236.6,207.1c0,22.6,0,44.6,0,66.6c5.5,1.7,7.3,4.2,6.3,9.7c-0.6,3.6-2.2,7.1-3.3,10.5
		c4.3,0,9,0,13.6,0c0-19,0-37.7,0-56.4c0-2.4-0.5-4.8-1.1-7.1C249.7,220.9,244.7,213.3,236.6,207.1z M175.8,164.5
		c-13.6,4.7-26.9,4.6-40.2,0.1c0,4.4,0,8.6,0,12.7c13.6,0,26.8,0,40.2,0C175.8,173,175.8,169,175.8,164.5z M97.4,81.9
		c-4.6,0-9-0.1-13.4,0.1c-2.4,0.1-4,1.6-4,4.1c-0.1,5.3-0.1,10.6,0,15.9c0,2.2,1.3,3.9,3.4,4c4.7,0.3,9.4,0.1,14.1,0.1
		C97.4,97.9,97.4,90,97.4,81.9z M213.9,106.1c4.6,0,9,0.1,13.3,0c2.5-0.1,4.1-1.4,4.1-3.9c0.1-5.4,0.1-10.8,0-16.2
		c0-2.4-1.5-3.9-3.8-4c-4.5-0.2-9-0.1-13.7-0.1C213.9,90,213.9,97.9,213.9,106.1z M213.9,114.9c-1,4.9-2.1,9.6-3.1,14.4
		c6.5-0.6,13.3-7.4,14.3-14.4C221.3,114.9,217.6,114.9,213.9,114.9z M155.4,139.1L155.4,139.1c1.2,0,2.3,0.1,3.5,0
		c2.4-0.3,3.8-1.8,4-4.2c0.2-2.3-1.6-4.3-4.1-4.4c-2.2-0.1-4.5-0.2-6.7,0c-2.5,0.2-3.8,1.8-3.8,4.3c0,2.4,1.4,3.9,3.9,4.3
		C153.3,139.2,154.4,139.1,155.4,139.1z"/>
	
		<linearGradient id="SVGID_2_" gradientUnits="userSpaceOnUse" x1="0.1515" y1="252.8653" x2="261.3084" y2="-31.048" gradientTransform="matrix(1 0 0 -1 0 313.8123)">
		<stop  offset="0" style="stop-color:#001689"/>
		<stop  offset="1" style="stop-color:#E1251B"/>
	</linearGradient>
	<path class="st1" d="M176.4,230c-1.1,2.1-1.8,4.2-3.2,5.6c-3.8,4.1-7.8,8-11.9,11.9c-3.4,3.3-7.9,3.3-11.4-0.1
		c-4-3.9-8-7.9-11.9-11.9c-3.3-3.4-3.3-8,0.1-11.4c3.9-4,7.9-8,11.9-11.9c3.4-3.3,7.9-3.3,11.4,0c4,3.9,8.1,7.8,11.9,11.9
		C174.6,225.8,175.2,227.9,176.4,230z M166.1,230.1c-3.6-3.6-7.1-7.1-10.5-10.5c-3.4,3.5-7,7-10.2,10.3c3.4,3.4,7,7,10.5,10.5
		C159.3,237,162.8,233.5,166.1,230.1z"/>
	
		<linearGradient id="SVGID_3_" gradientUnits="userSpaceOnUse" x1="80.0366" y1="326.3474" x2="341.1935" y2="42.4341" gradientTransform="matrix(1 0 0 -1 0 313.8123)">
		<stop  offset="0" style="stop-color:#001689"/>
		<stop  offset="1" style="stop-color:#E1251B"/>
	</linearGradient>
	<path class="st2" d="M175.9,96.3c0-1.4-0.1-2.7,0-4c0.2-2.4,1.6-3.7,3.9-3.8c2.4-0.1,4.2,1.1,4.5,3.6c0.3,2.8,0.3,5.6,0.1,8.4
		c-0.2,2.5-2.3,4.2-4.5,3.9c-2.4-0.3-3.8-1.7-4-4.2C175.8,98.8,175.9,97.6,175.9,96.3C175.9,96.3,175.9,96.3,175.9,96.3z"/>
	
		<linearGradient id="SVGID_4_" gradientUnits="userSpaceOnUse" x1="53.4701" y1="301.9102" x2="314.627" y2="17.9969" gradientTransform="matrix(1 0 0 -1 0 313.8123)">
		<stop  offset="0" style="stop-color:#001689"/>
		<stop  offset="1" style="stop-color:#E1251B"/>
	</linearGradient>
	<path class="st3" d="M135.4,96.3c0,1.4,0.1,2.7,0,4c-0.2,2.4-1.7,3.7-3.9,3.9c-2.4,0.1-4.2-1.1-4.5-3.6c-0.3-2.9-0.3-5.8,0-8.6
		c0.2-2.4,2-3.7,4.5-3.6c2.3,0.1,3.8,1.5,4,3.9C135.5,93.6,135.4,95,135.4,96.3z"/>
	
		<linearGradient id="SVGID_5_" gradientUnits="userSpaceOnUse" x1="0.2329" y1="252.9401" x2="261.3897" y2="-30.9732" gradientTransform="matrix(1 0 0 -1 0 313.8123)">
		<stop  offset="0" style="stop-color:#001689"/>
		<stop  offset="1" style="stop-color:#E1251B"/>
	</linearGradient>
	<path class="st4" d="M166.1,230.1c-3.3,3.4-6.9,6.9-10.2,10.2c-3.5-3.5-7.1-7.1-10.5-10.5c3.2-3.2,6.8-6.8,10.2-10.3
		C159,223,162.5,226.5,166.1,230.1z"/>
</g>
</svg>
