<?xml version="1.0" encoding="utf-8"?>
<!-- Generator: Adobe Illustrator 22.0.0, SVG Export Plug-In . SVG Version: 6.00 Build 0)  -->
<svg version="1.1" id="Layer_1" xmlns="http://www.w3.org/2000/svg" xmlns:xlink="http://www.w3.org/1999/xlink" x="0px" y="0px"
	 viewBox="0 0 311.8 311.8" style="enable-background:new 0 0 311.8 311.8;" xml:space="preserve">
<style type="text/css">
	.st0{fill:url(#SVGID_1_);}
	.st1{fill:url(#SVGID_2_);}
	.st2{fill:url(#SVGID_3_);}
</style>
<g>
	
		<linearGradient id="SVGID_1_" gradientUnits="userSpaceOnUse" x1="6.1766" y1="350.0648" x2="356.7916" y2="-9.2073" gradientTransform="matrix(1 0 0 -1 0 313.8123)">
		<stop  offset="0" style="stop-color:#001689"/>
		<stop  offset="1" style="stop-color:#E1251B"/>
	</linearGradient>
	<path class="st0" d="M176.2,305.7c-3.9-1.8-5.2-5-5.1-9.1c0.2-5.7,0-11.4,0-17.1c0-5.9,1.3-7.6,7.3-9.2c0.5-3.8,0.4-7.3-2.3-10.7
		c-6.5-7.9-12.5-16.2-18.9-24.2c-3.3-4.1-4.9-8.6-4.7-13.9c0.1-6.5,0.1-12.9,0-19.4c-0.1-5.2,1.4-9.6,4.8-13.6
		c3.5-4.2,6.9-8.6,10.3-12.9c0.6-0.8,1.3-1.8,1.4-2.8c0.1-6.4,0.1-12.7,0.1-19.8c-1.3,1-2,1.7-2.8,2.3c-16.7,14-35.8,21.3-57.9,20.7
		c-37.6-1.1-73.4-32.2-79.6-69.3c-3.5-20.9,1-40.2,11.6-58.3c1.7-2.8,3.9-3.6,6.2-2.3c2.4,1.3,2.9,3.8,1.2,6.8
		c-5.7,9.8-9.7,20.2-11,31.5c-2.7,24.1,5.2,44.6,22.5,61.2c15.4,14.9,34.1,22.5,55.7,21.7c21.4-0.8,38.7-10.5,52.9-26
		c0.7-0.8,1-2.3,1-3.4c0.1-10.3,0-20.7,0.1-31c0.1-10.8,6-17.5,17.4-19.1c-0.6-3.8-1.2-7.7-2-11.5c-0.1-0.6-1.2-1.2-1.9-1.6
		c-12.1-7.5-18-18.4-17.7-32.7c0-1.1-0.6-2.4-1.3-3.2c-11.9-11.8-26.4-18.4-42.9-20.3c-22.4-2.5-42.3,3.3-59.3,18.4
		c-2.4,2.1-4.9,2.1-6.7,0.1c-1.7-1.9-1.4-4.5,0.9-6.6c17.8-16,38.9-22.8,62.5-20.9c20.2,1.6,29.9,6.1,49.6,20.9
		c5-10.7,13-17.9,24.7-20.5c8.4-1.8,16.6-0.7,24.2,3.3c14.8,7.6,22,24.7,17.4,40.8c-4.1,14.2-19.1,27.7-39.7,24.9
		c0.3,3.6,0.5,7.1,0.9,10.6c0.1,0.5,0.8,1,1.3,1.4c5.4,3.8,8,9,8,15.5c0,8.8,0,17.6,0,26.4c0,1,0,2.1,0,3.5
		c4.8-2.2,9.4-2.8,14.1-1.4c4.8,1.4,8.3,4.4,10.7,8.7c11.6-7.4,23.6-1.8,27.5,7.8c3.4-0.7,6.8-1.9,10.1-2
		c9.7-0.2,17.5,7.4,17.5,17.1c0.1,25.8,0.1,51.6,0,77.4c0,6.4-2.3,12.2-6.6,16.9c-2.6,2.8-3.6,5.8-2.9,9.6c0.6,0.2,1.2,0.4,1.8,0.5
		c3.5,0.9,5.4,3,5.4,6.5c0.1,7.2,0,14.5,0,21.7c0,3.4-2.2,5.1-4.7,6.7C243.6,305.7,209.9,305.7,176.2,305.7z M273.2,279.3
		c-7,0-13.7,0-20.5,0c-4.7,0-6.8-1.4-6.7-4.4c0.1-3,2.1-4.2,6.6-4.2c4.3,0,8.6,0,13.3,0c-0.9-7.1,2-12.1,6.1-17.1
		c2-2.5,3.3-6.3,3.4-9.6c0.3-25.7,0.2-51.4,0.1-77.1c0-5-3.8-8.8-8.5-8.9c-5-0.1-8.9,3.4-9.4,8.4c-0.2,1.7,0,3.5-0.1,5.2
		c-0.3,2.8-2.8,4.5-5.4,3.7c-2.4-0.7-3.2-2.6-3.2-4.9c0-4.2,0.1-8.5,0-12.7c-0.1-4.1-2.4-7.1-6-8.3c-6.2-1.9-11.6,2.1-11.8,8.9
		c-0.1,4.2,0.1,8.3-0.1,12.5c-0.1,3.4-3.2,5.3-6.1,3.9c-2.2-1-2.6-3-2.6-5.1c0-6,0.1-12-0.1-18c-0.1-5.5-4.1-8.9-9.5-8.6
		c-5.1,0.3-8.3,3.8-8.4,9.6c-0.1,6.2,0,12.4-0.1,18.5c0,2.6-1.4,4.2-4,4.4c-2.5,0.2-4.3-1.4-4.6-4.2c-0.1-1-0.1-1.9-0.1-2.9
		c0-20.1,0-40.2,0-60.3c0-1.2,0-2.3-0.1-3.5c-0.6-5.7-5.8-9.2-11.3-7.6c-4.5,1.3-6.5,4.4-6.5,10.3c0,29.9,0,59.9,0,89.8
		c0,1.3,0,2.7-0.3,4c-0.4,2.1-1.9,3.1-4,3.2c-2.2,0-3.8-1-4.2-3.2c-0.3-1.3-0.2-2.7-0.3-4c0-2.7,0-5.5,0-8.2
		c-1.7,1.1-2.6,2.4-3.8,3.6c-3.1,3.2-4.3,6.9-4.1,11.3c0.3,6,0.1,12,0,18c-0.1,3.2,0.9,5.8,2.9,8.3c6.3,8,12.5,16.2,18.9,24.2
		c3.1,3.9,4.9,8.1,4.5,13c-0.1,1,0,2,0,3.3c1.5,0,2.6,0,3.6,0c12.1,0,24.2,0,36.3,0c0.9,0,1.7,0,2.6,0c2.8,0.3,4.4,2,4.3,4.5
		c-0.1,2.3-1.7,4.1-4.4,4.1c-6.5,0.1-13,0.1-19.5,0.1c-9.3,0-18.6,0-27.9,0.1c-0.9,0-2.5,0.8-2.5,1.3c-0.2,5.4-0.1,10.8-0.1,16.3
		c31.2,0,62.2,0,93.2,0C273.2,291.1,273.2,285.4,273.2,279.3z M226.2,44.1c0-15.2-11.3-26.4-26.6-26.4c-14.3,0-26.1,11.9-26.1,26.3
		c0,14.3,11.8,26.4,26,26.5C214.7,70.5,226.2,59.2,226.2,44.1z"/>
	
		<linearGradient id="SVGID_2_" gradientUnits="userSpaceOnUse" x1="-7.8207" y1="336.4047" x2="342.7942" y2="-22.8673" gradientTransform="matrix(1 0 0 -1 0 313.8123)">
		<stop  offset="0" style="stop-color:#001689"/>
		<stop  offset="1" style="stop-color:#E1251B"/>
	</linearGradient>
	<path class="st1" d="M126.5,76.1c9.2,0,18.3,0,27.4,0c3,0,5.3,0.9,6.7,3.6c1.5,3.1,0.6,6.2-2.6,8.6c-6.7,4.9-13.4,9.8-20.2,14.6
		c-1.8,1.2-2,2.3-1.3,4.2c2.6,7.7,5.1,15.4,7.5,23.1c1.3,3.9,0.6,6.7-2.1,8.5c-2.6,1.8-5.3,1.6-8.5-0.7c-7.3-5.3-14.5-10.5-22-15.9
		c-6.4,4.7-12.9,9.3-19.3,13.9c-1.3,0.9-2.5,1.9-3.8,2.7c-2.7,1.7-5.6,1.7-7.8-0.2c-2.3-1.9-3-4.4-2.1-7.3
		c2.6-8.1,5.1-16.2,7.9-24.2c0.7-2,0.3-3.1-1.4-4.3c-6.6-4.7-13.2-9.5-19.7-14.3c-3.3-2.4-4.4-5-3.3-8.1c1-2.9,3.4-4.3,7.4-4.3
		c8.2,0,16.4-0.1,24.7,0c1.9,0,2.7-0.6,3.3-2.4c2.4-7.7,5-15.4,7.5-23.1c1.4-4.2,3.4-6,6.8-6c3.3,0,5.3,1.8,6.7,6.1
		c2.4,7.4,4.8,14.8,7.2,22.3C125.7,74.1,126.1,75.1,126.5,76.1z M147,85.5c-0.1-0.2-0.1-0.4-0.2-0.7c-6.9,0-13.9,0-20.8,0
		c-4.5,0-6.5-1.5-7.9-5.7c-2.2-6.7-4.4-13.4-6.8-20.8c-2,6-3.7,11.2-5.4,16.5c-3.2,10-3.2,10-13.8,10c-5.5,0-10.9,0-17.1,0
		c1.3,1,1.9,1.6,2.6,2c4.7,3.4,9.4,6.8,14.1,10.2c4.7,3.4,5.3,5.2,3.4,10.8c-1.8,5.6-3.6,11.2-5.5,16.8c-0.2,0.7-0.4,1.5-0.7,2.9
		c6-4.4,11.5-8.3,16.9-12.3c4.4-3.2,6.4-3.2,10.9,0.1c4.7,3.4,9.4,6.8,14.1,10.2c0.8,0.6,1.6,1.1,3,2c-2.3-7.3-4.5-13.8-6.5-20.3
		c-1.6-4.9-0.9-6.9,3.2-9.9C136.1,93.5,141.6,89.5,147,85.5z"/>
	
		<linearGradient id="SVGID_3_" gradientUnits="userSpaceOnUse" x1="65.3419" y1="407.8044" x2="415.9568" y2="48.5324" gradientTransform="matrix(1 0 0 -1 0 313.8123)">
		<stop  offset="0" style="stop-color:#001689"/>
		<stop  offset="1" style="stop-color:#E1251B"/>
	</linearGradient>
	<path class="st2" d="M195.5,48.4c-2,0-3.8,0.1-5.6,0c-3-0.1-4.8-1.8-4.8-4.4c0-2.5,1.8-4.2,4.8-4.3c1.8,0,3.6,0,5.7,0
		c0-2.2-0.1-4,0-5.8c0.2-3.1,1.7-4.7,4.4-4.7c2.7,0,4.2,1.6,4.3,4.7c0.1,1.7,0.1,3.5,0.2,5.2c0,0.1,0.1,0.2,0.4,0.6
		c1.6,0,3.6-0.1,5.5,0c2.8,0.1,4.5,1.7,4.5,4.2c0,2.5-1.7,4.2-4.4,4.4c-1,0.1-1.9,0-2.9,0c-1,0-1.9,0-3.2,0c0,2.2,0.1,4.1,0,6
		c-0.1,2.8-1.8,4.5-4.3,4.5c-2.5,0-4.1-1.6-4.4-4.4c-0.1-1,0-1.9,0-2.9C195.6,50.6,195.5,49.6,195.5,48.4z"/>
</g>
</svg>
