<?xml version="1.0" encoding="utf-8"?>
<!-- Generator: Adobe Illustrator 22.0.0, SVG Export Plug-In . SVG Version: 6.00 Build 0)  -->
<svg version="1.1" id="Layer_1" xmlns="http://www.w3.org/2000/svg" xmlns:xlink="http://www.w3.org/1999/xlink" x="0px" y="0px"
	 viewBox="0 0 311.8 311.8" style="enable-background:new 0 0 311.8 311.8;" xml:space="preserve">
<style type="text/css">
	.st0{fill:url(#SVGID_1_);}
</style>
<g>
	
		<linearGradient id="SVGID_1_" gradientUnits="userSpaceOnUse" x1="-28.8768" y1="310.2654" x2="306.003" y2="-22.6091" gradientTransform="matrix(1 0 0 -1 0 313.8123)">
		<stop  offset="0" style="stop-color:#001689"/>
		<stop  offset="1" style="stop-color:#E1251B"/>
	</linearGradient>
	<path class="st0" d="M285.2,303.1c-85.5,0-171,0-256.5,0c-4.3-1.5-5.7-4.6-5.7-9c0.1-46.8,0-93.5,0-140.3c0-1.2,0-2.4,0-3.9
		c-1.5,0-2.6,0-3.8,0c-6.9,0-8.9-2.1-8.9-8.9c0-15.3,0-30.5,0-45.8c0-7.1,2-9.1,9.2-9.1c27.5,0,55,0,82.4,0c1,0,2,0,3,0
		c-0.6-1-1.3-1.3-1.9-1.8c-5.7-4.1-11.9-7.7-17.1-12.3c-15.2-13.3-15.8-37.1-1.5-51.6c13.7-13.9,38-13.7,51.5,0.5
		c5.5,5.8,10.1,12.2,13.6,19.4c2.5,5.2,4.9,10.4,7.5,16c0.5-1.2,0.9-2.1,1.3-3c3.4-8.6,7.5-16.7,12.8-24.2
		c7.4-10.4,16.6-17.6,29.9-18.8c23.6-2.2,43,19.5,38,42.7c-2.1,9.9-7.7,17.3-15.6,23.2c-4.7,3.5-9.7,6.6-15,10.1c1.4,0,2.4,0,3.4,0
		c27.7,0,55.3,0,83,0c4,0,7.1,1.1,8.6,5.1c0,17.9,0,35.9,0,53.8c-2.3,6-7.7,4.8-12.7,5c0,1.4,0,2.6,0,3.8c0,46.7,0,93.5,0,140.2
		C290.9,298.5,289.5,301.7,285.2,303.1z M124.9,150.2c-29.8,0-59.2,0-88.8,0c0,46.7,0,93.2,0,139.8c29.7,0,59.2,0,88.8,0
		C124.9,243.3,124.9,196.8,124.9,150.2z M189,150.1c0,46.7,0,93.2,0,139.8c29.7,0,59.2,0,88.7,0c0-46.7,0-93.2,0-139.8
		C248.1,150.1,218.6,150.1,189,150.1z M138,290c12.8,0,25.3,0,37.8,0c0-46.7,0-93.2,0-139.8c-12.7,0-25.3,0-37.8,0
		C138,196.9,138,243.3,138,290z M23.2,137c33.9,0,67.7,0,101.6,0c0-12.7,0-25.2,0-37.8c-34,0-67.8,0-101.6,0
		C23.2,111.9,23.2,124.4,23.2,137z M290.7,99.2c-33.9,0-67.7,0-101.6,0c0,12.7,0,25.2,0,37.8c34,0,67.8,0,101.6,0
		C290.7,124.3,290.7,111.8,290.7,99.2z M150.6,86.8c-0.1-1.6-0.1-2.2-0.1-2.8c-1.8-14.5-6.5-28-13.6-40.6c-3.4-6.1-7.3-11.9-13-16.2
		c-7.1-5.3-15-6.3-23-2.8C92.7,28,87.9,34.5,87,43.6c-0.9,9.2,3.3,16.2,10.2,21.7c10.3,8.3,22.2,13.7,34.8,17.3
		C138,84.3,144,85.4,150.6,86.8z M162.8,86.2c2.3-0.2,3.9-0.1,5.4-0.5c6.9-1.7,13.9-3.2,20.7-5.5c11.2-3.8,21.8-9.2,30.5-17.5
		c7.3-7,9.6-15.6,6.1-25.1c-3.3-9-10.1-14.2-19.8-15c-9.2-0.8-16.1,3.5-21.6,10.5c-8.7,11-14.3,23.6-17.9,37
		C164.8,75.3,164,80.5,162.8,86.2z M138,137c12.7,0,25.2,0,37.8,0c0-12.7,0-25.2,0-37.8c-12.7,0-25.2,0-37.8,0
		C138,111.9,138,124.4,138,137z"/>
</g>
</svg>
