<?xml version="1.0" encoding="utf-8"?>
<!-- Generator: Adobe Illustrator 25.2.3, SVG Export Plug-In . SVG Version: 6.00 Build 0)  -->
<svg version="1.1" id="Capa_1" xmlns="http://www.w3.org/2000/svg" xmlns:xlink="http://www.w3.org/1999/xlink" x="0px" y="0px"
	 viewBox="0 0 138 138" style="enable-background:new 0 0 138 138;" xml:space="preserve">
<style type="text/css">
	.st0{fill:url(#SVGID_1_);}
	.st1{fill:url(#SVGID_2_);}
	.st2{fill:#FFFFFF;}
</style>
<g>
	<g>
		<linearGradient id="SVGID_1_" gradientUnits="userSpaceOnUse" x1="27.1832" y1="8.2319" x2="150.9111" y2="114.4842">
			<stop  offset="0" style="stop-color:#001689"/>
			<stop  offset="1" style="stop-color:#E1251B"/>
		</linearGradient>
		<path class="st0" d="M129.58,36.23c-0.37-5.58-5.19-9.79-10.77-9.42l-104.72,7c-5.58,0.37-9.79,5.2-9.42,10.77l0.58,8.74
			l124.91-8.35L129.58,36.23z"/>
		<linearGradient id="SVGID_2_" gradientUnits="userSpaceOnUse" x1="5.9491" y1="24.7616" x2="134.4554" y2="135.1173">
			<stop  offset="0" style="stop-color:#001689"/>
			<stop  offset="1" style="stop-color:#E1251B"/>
		</linearGradient>
		<path class="st1" d="M130.67,53.99L5.76,62.34l2.66,38.42c0.37,5.58,5.19,9.79,10.77,9.42l104.72-7
			c5.58-0.37,9.79-5.19,9.42-10.77L130.67,53.99z"/>
		<polygon class="st2" points="130.16,44.97 5.25,53.32 5.76,62.34 130.67,53.99 		"/>
	</g>
	<path class="st2" d="M115.32,78.07l6.29,0.57c1.13,0.1,1.66,1.46,0.89,2.3l-4.28,4.64c-0.31,0.33-0.43,0.8-0.33,1.24l1.4,6.16
		c0.25,1.11-0.88,2.03-1.91,1.55l-5.74-2.63c-0.41-0.19-0.89-0.16-1.28,0.07l-5.42,3.23c-0.98,0.58-2.2-0.21-2.07-1.34l0.73-6.27
		c0.05-0.45-0.12-0.9-0.46-1.19l-4.75-4.16c-0.86-0.75-0.48-2.16,0.64-2.38l6.19-1.24c0.44-0.09,0.82-0.39,0.99-0.81l2.49-5.8
		c0.45-1.05,1.9-1.13,2.46-0.13l3.09,5.51C114.47,77.77,114.87,78.03,115.32,78.07z"/>
</g>
</svg>
