<?xml version="1.0" encoding="utf-8"?>
<!-- Generator: Adobe Illustrator 25.2.3, SVG Export Plug-In . SVG Version: 6.00 Build 0)  -->
<svg version="1.1" id="Capa_1" xmlns="http://www.w3.org/2000/svg" xmlns:xlink="http://www.w3.org/1999/xlink" x="0px" y="0px"
	 viewBox="0 0 128 128" style="enable-background:new 0 0 128 128;" xml:space="preserve">
<style type="text/css">
	.st0{fill:url(#SVGID_1_);}
</style>
<g>
	<linearGradient id="SVGID_1_" gradientUnits="userSpaceOnUse" x1="10.9551" y1="32.0842" x2="121.052" y2="118.0647">
		<stop  offset="0" style="stop-color:#001689"/>
		<stop  offset="1" style="stop-color:#E1251B"/>
	</linearGradient>
	<path class="st0" d="M88.62,40.97l29.17,4.22c5.26,0.76,7.37,7.23,3.56,10.94l-21.09,20.59c-1.51,1.47-2.2,3.6-1.84,5.68l5,29.04
		c0.9,5.24-4.6,9.24-9.3,6.77l-26.1-13.7c-1.87-0.98-4.1-0.98-5.97,0l-26.08,13.73c-4.7,2.48-10.21-1.51-9.31-6.76l4.96-29.05
		c0.36-2.08-0.34-4.2-1.85-5.68L8.65,56.21C4.84,52.5,6.94,46.03,12.2,45.26L41.37,41c2.09-0.31,3.89-1.62,4.83-3.51l13.02-26.44
		c2.35-4.77,9.15-4.77,11.51-0.01l13.06,26.42C84.72,39.35,86.53,40.67,88.62,40.97z"/>
</g>
</svg>
