<?xml version="1.0" encoding="utf-8"?>
<!-- Generator: Adobe Illustrator 25.2.3, SVG Export Plug-In . SVG Version: 6.00 Build 0)  -->
<svg version="1.1" id="Capa_1" xmlns="http://www.w3.org/2000/svg" xmlns:xlink="http://www.w3.org/1999/xlink" x="0px" y="0px"
	 viewBox="0 0 176 176" style="enable-background:new 0 0 176 176;" xml:space="preserve">
<style type="text/css">
	.st0{fill:url(#SVGID_1_);}
	.st1{fill:url(#SVGID_2_);}
	.st2{fill:url(#SVGID_3_);}
	.st3{fill:url(#SVGID_4_);}
</style>
<g>
	<g>
		<linearGradient id="SVGID_1_" gradientUnits="userSpaceOnUse" x1="-7.6507" y1="77.4883" x2="263.8422" y2="77.4883">
			<stop  offset="0" style="stop-color:#001689"/>
			<stop  offset="1" style="stop-color:#E1251B"/>
		</linearGradient>
		<path class="st0" d="M40.69,77.49l10.19,5.63l-3.49,6.08l-10.37-6.08l0.09,11.53h-6.8l0.09-11.45L20.12,89.2l-3.58-6.08
			l10.28-5.63l-10.28-5.63l3.58-6.17l10.28,6.08l-0.09-11.44h6.8l-0.09,11.53l10.37-6.17l3.49,6.17L40.69,77.49z"/>
		<linearGradient id="SVGID_2_" gradientUnits="userSpaceOnUse" x1="-7.6507" y1="77.4883" x2="263.8422" y2="77.4883">
			<stop  offset="0" style="stop-color:#001689"/>
			<stop  offset="1" style="stop-color:#E1251B"/>
		</linearGradient>
		<path class="st1" d="M93.98,77.49l10.19,5.63l-3.49,6.08l-10.37-6.08l0.09,11.53h-6.8l0.09-11.45L73.41,89.2l-3.58-6.08
			l10.28-5.63l-10.28-5.63l3.58-6.17l10.28,6.08L83.6,60.32h6.8l-0.09,11.53l10.37-6.17l3.49,6.17L93.98,77.49z"/>
		<linearGradient id="SVGID_3_" gradientUnits="userSpaceOnUse" x1="-7.6507" y1="77.4883" x2="263.8422" y2="77.4883">
			<stop  offset="0" style="stop-color:#001689"/>
			<stop  offset="1" style="stop-color:#E1251B"/>
		</linearGradient>
		<path class="st2" d="M147.26,77.49l10.19,5.63l-3.49,6.08l-10.37-6.08l0.09,11.53h-6.8l0.09-11.45L126.7,89.2l-3.58-6.08
			l10.28-5.63l-10.28-5.63l3.58-6.17l10.28,6.08l-0.09-11.44h6.8l-0.09,11.53l10.37-6.17l3.49,6.17L147.26,77.49z"/>
	</g>
	<linearGradient id="SVGID_4_" gradientUnits="userSpaceOnUse" x1="17.4066" y1="51.1712" x2="157.7807" y2="171.7184">
		<stop  offset="0" style="stop-color:#001689"/>
		<stop  offset="1" style="stop-color:#E1251B"/>
	</linearGradient>
	<rect x="3.49" y="108.19" class="st3" width="167.03" height="5.49"/>
</g>
</svg>
