<?xml version="1.0" encoding="utf-8"?>
<!-- Generator: Adobe Illustrator 25.2.3, SVG Export Plug-In . SVG Version: 6.00 Build 0)  -->
<svg version="1.1" id="Capa_1" xmlns="http://www.w3.org/2000/svg" xmlns:xlink="http://www.w3.org/1999/xlink" x="0px" y="0px"
	 viewBox="0 0 125 125" style="enable-background:new 0 0 125 125;" xml:space="preserve">
<style type="text/css">
	.st0{fill:url(#SVGID_1_);}
</style>
<g>
	<linearGradient id="SVGID_1_" gradientUnits="userSpaceOnUse" x1="13.0478" y1="25.3575" x2="110.3617" y2="113.5767">
		<stop  offset="0" style="stop-color:#001689"/>
		<stop  offset="1" style="stop-color:#E1251B"/>
	</linearGradient>
	<path class="st0" d="M103.03,86.94c0.01,2.38,0.09,4.75-0.8,7.05c-1.85,4.81-6.45,8.13-11.6,8.04
		c-23.41-0.39-42.12-10.04-55.98-28.87c-6.6-8.96-10.5-19.11-12.02-30.13c-0.43-3.13-0.62-6.3-0.66-9.46
		c-0.09-6.88,5.13-12.3,12.01-12.58c2.32-0.09,4.65-0.02,6.98-0.03c0.87,0,1.42,0.41,1.69,1.24c1.97,5.93,3.95,11.85,5.91,17.78
		c0.31,0.95,0.11,1.47-0.78,2.06c-2.47,1.66-4.95,3.3-7.43,4.95c-1.25,0.83-1.42,1.33-0.85,2.72c3.82,9.41,9.76,17.29,17.36,23.96
		c5.18,4.55,10.94,8.2,17.35,10.79c1.49,0.6,1.93,0.46,2.83-0.9c1.61-2.41,3.21-4.82,4.82-7.22c0.74-1.1,1.19-1.24,2.47-0.81
		c5.77,1.92,11.54,3.85,17.32,5.77c1.07,0.36,1.36,0.76,1.38,1.91C103.04,84.45,103.03,85.69,103.03,86.94z"/>
</g>
</svg>
