<?xml version="1.0" encoding="utf-8"?>
<!-- Generator: Adobe Illustrator 25.2.3, SVG Export Plug-In . SVG Version: 6.00 Build 0)  -->
<svg version="1.1" id="Capa_1" xmlns="http://www.w3.org/2000/svg" xmlns:xlink="http://www.w3.org/1999/xlink" x="0px" y="0px"
	 viewBox="0 0 138 138" style="enable-background:new 0 0 138 138;" xml:space="preserve">
<style type="text/css">
	.st0{fill:url(#SVGID_1_);}
</style>
<linearGradient id="SVGID_1_" gradientUnits="userSpaceOnUse" x1="28.124" y1="-9.0792" x2="153.949" y2="199.5806">
	<stop  offset="0" style="stop-color:#001689"/>
	<stop  offset="1" style="stop-color:#E1251B"/>
</linearGradient>
<path class="st0" d="M128.54,26.62c-0.04-1.82-0.18-3.64-0.33-3.87c-0.31-0.47-1.04-0.53-1.64-0.68c-0.61-0.15-0.4-0.49-0.45-1.34
	c-0.05-0.85,0.84-0.38,1.29-0.76c0.46-0.38,0.54-2.93,0.54-4.15s-0.46-5.67-1.47-7.7c-1.01-2.03-41.13-2.23-53.29-2.23
	c-0.89,0-1.97,0.01-3.19,0.03c-1.22-0.02-2.3-0.03-3.19-0.03c-12.16,0-52.28,0.2-53.29,2.23c-1.01,2.03-1.47,6.48-1.47,7.7
	s0.08,3.77,0.54,4.15c0.46,0.38,1.34-0.09,1.29,0.76c-0.05,0.85,0.16,1.19-0.45,1.34s-1.33,0.21-1.64,0.68
	c-0.16,0.24-0.3,2.05-0.33,3.87c-1.22,0.33-2.26,0.9-2.26,2.2c0,0.84,0.34,6.65,0.66,12.04l0.11,1.91c0.05,0.86,0.08,1.97,0.12,3.2
	c0.12,4.02,0.27,9.02,1.15,11.01c0.73,1.68,4.48,8.02,6.89,12.04c0.58,11.02,1.12,21.17,1.35,25.22c0.52,9.09,2.81,22.92,3.47,33.33
	c0.1,1.61,1.37,2.9,2.98,3.02c8.49,0.65,34.01,2.52,45.35,2.52c11.25,0,34.72-1.84,42.78-2.5c1.6-0.13,2.86-1.41,2.96-3.02
	c0.66-10.4,2.95-24.26,3.47-33.35c0.23-4.05,0.77-14.2,1.35-25.22c2.41-4.02,6.16-10.37,6.89-12.04c0.87-2,1.03-7,1.15-11.01
	c0.04-1.23,0.07-2.34,0.12-3.2l0.11-1.91c0.32-5.38,0.66-11.19,0.66-12.04C130.8,27.52,129.76,26.94,128.54,26.62z M12.84,56.27
	c-0.74-1.69-0.89-6.7-1-10.37c-0.04-1.24-0.07-2.37-0.12-3.24l-0.11-1.92c-0.23-3.87-0.66-11.07-0.66-11.93
	c0-0.14,0.22-0.26,0.52-0.37c0.03,1.06,0.12,1.91,0.28,2.12c0.29,0.37,4.41,0.25,4.41,0.25s0.91,17.57,1.8,34.47
	C15.78,61.64,13.38,57.51,12.84,56.27z M128.4,40.74l-0.11,1.92c-0.05,0.87-0.09,2-0.12,3.24c-0.11,3.66-0.26,8.68-1,10.37
	c-0.54,1.24-2.94,5.36-5.1,9.01c0.89-16.91,1.8-34.47,1.8-34.47s4.12,0.11,4.41-0.25c0.17-0.21,0.25-1.06,0.28-2.12
	c0.3,0.11,0.52,0.23,0.52,0.37C129.06,29.67,128.63,36.87,128.4,40.74z"/>
</svg>
