<?xml version="1.0" encoding="utf-8"?>
<!-- Generator: Adobe Illustrator 25.2.3, SVG Export Plug-In . SVG Version: 6.00 Build 0)  -->
<svg version="1.1" id="Capa_1" xmlns="http://www.w3.org/2000/svg" xmlns:xlink="http://www.w3.org/1999/xlink" x="0px" y="0px"
	 viewBox="0 0 143.49 143.49" style="enable-background:new 0 0 143.49 143.49;" xml:space="preserve">
<style type="text/css">
	.st0{fill:url(#SVGID_1_);}
	.st1{fill:url(#SVGID_2_);}
	.st2{fill:#FFFFFF;}
	.st3{fill:url(#SVGID_3_);}
</style>
<g>
	<linearGradient id="SVGID_1_" gradientUnits="userSpaceOnUse" x1="19.9746" y1="29.9529" x2="142.654" y2="136.9041">
		<stop  offset="0" style="stop-color:#001689"/>
		<stop  offset="1" style="stop-color:#E1251B"/>
	</linearGradient>
	<path class="st0" d="M58.63,133.8c-0.35,0-0.7-0.03-1.05-0.09c-2.28-0.4-4.01-2.04-5.68-3.63c-1.22-1.16-2.38-2.25-3.56-2.69
		c-1.23-0.45-2.85-0.35-4.55-0.25c-2.27,0.14-4.63,0.28-6.59-0.86c-1.98-1.15-3.04-3.27-4.06-5.32c-0.76-1.52-1.47-2.95-2.46-3.78
		c-0.99-0.83-2.53-1.29-4.16-1.78c-2.19-0.65-4.46-1.33-5.93-3.07c-1.46-1.74-1.73-4.09-2-6.36c-0.2-1.69-0.38-3.29-1.03-4.42
		c-0.64-1.11-1.92-2.05-3.28-3.06c-1.85-1.37-3.76-2.78-4.55-4.94c-0.77-2.12-0.22-4.41,0.3-6.62c0.4-1.67,0.78-3.25,0.55-4.55
		c-0.22-1.24-1.09-2.56-2.01-3.95c-1.27-1.93-2.59-3.92-2.59-6.25c0-2.33,1.32-4.32,2.59-6.25c0.92-1.4,1.8-2.72,2.01-3.95
		c0.23-1.3-0.15-2.88-0.55-4.55c-0.53-2.21-1.08-4.5-0.3-6.62c0.79-2.16,2.7-3.58,4.55-4.94c1.36-1,2.64-1.95,3.28-3.06
		c0.65-1.13,0.84-2.73,1.03-4.42c0.26-2.27,0.53-4.61,2-6.36c1.47-1.75,3.74-2.42,5.93-3.07c1.63-0.48,3.17-0.94,4.16-1.78
		c0.99-0.83,1.7-2.26,2.46-3.78c1.02-2.05,2.08-4.17,4.06-5.32c1.96-1.13,4.32-0.99,6.59-0.86c1.71,0.1,3.32,0.2,4.55-0.25
		c1.19-0.43,2.34-1.53,3.57-2.69c1.67-1.59,3.4-3.23,5.68-3.63c2.21-0.39,4.35,0.55,6.43,1.45c1.58,0.69,3.08,1.34,4.42,1.34
		s2.83-0.65,4.42-1.34c2.08-0.9,4.23-1.83,6.43-1.45c2.28,0.4,4.01,2.04,5.69,3.63c1.22,1.16,2.38,2.25,3.56,2.69
		c1.23,0.45,2.84,0.35,4.55,0.25c2.27-0.13,4.63-0.28,6.59,0.86c1.98,1.15,3.04,3.27,4.06,5.32c0.76,1.52,1.47,2.95,2.46,3.78
		c0.99,0.83,2.53,1.29,4.16,1.78c2.19,0.65,4.46,1.33,5.93,3.07c1.46,1.74,1.73,4.09,2,6.36c0.2,1.69,0.38,3.29,1.03,4.42
		c0.64,1.11,1.92,2.06,3.28,3.06c1.85,1.37,3.76,2.78,4.55,4.94c0.77,2.12,0.22,4.41-0.3,6.62c-0.4,1.67-0.78,3.25-0.55,4.55
		c0.22,1.24,1.09,2.56,2.01,3.95c1.27,1.93,2.59,3.92,2.59,6.25c0,2.33-1.32,4.32-2.59,6.25c-0.92,1.4-1.8,2.72-2.01,3.95
		c-0.23,1.3,0.15,2.88,0.55,4.55c0.53,2.21,1.08,4.5,0.3,6.62c-0.79,2.16-2.7,3.58-4.55,4.94c-1.36,1.01-2.64,1.96-3.28,3.06
		c-0.65,1.13-0.84,2.73-1.03,4.42c-0.26,2.27-0.53,4.62-2,6.36c-1.47,1.75-3.74,2.42-5.93,3.07c-1.63,0.48-3.17,0.94-4.16,1.78
		c-0.99,0.83-1.7,2.26-2.46,3.78c-1.02,2.05-2.08,4.17-4.06,5.32c-1.96,1.13-4.31,1-6.59,0.86c-1.71-0.1-3.32-0.2-4.55,0.25
		c-1.19,0.43-2.34,1.53-3.56,2.69c-1.67,1.59-3.4,3.23-5.68,3.63c-2.21,0.38-4.35-0.55-6.43-1.45c-1.58-0.69-3.08-1.34-4.42-1.34
		s-2.83,0.65-4.42,1.34C62.26,133.02,60.46,133.8,58.63,133.8z M45.87,124.27c1.17,0,2.33,0.11,3.42,0.5
		c1.73,0.63,3.16,1.98,4.53,3.28c1.44,1.36,2.79,2.65,4.25,2.9c1.38,0.24,3.06-0.49,4.83-1.26c1.78-0.77,3.61-1.57,5.53-1.57
		c1.92,0,3.75,0.8,5.53,1.57c1.78,0.77,3.46,1.5,4.83,1.26c1.45-0.25,2.81-1.54,4.25-2.9c1.37-1.3,2.8-2.65,4.53-3.28
		c1.77-0.65,3.75-0.53,5.67-0.42c1.95,0.12,3.79,0.22,5.03-0.49c1.26-0.73,2.08-2.39,2.96-4.15c0.85-1.71,1.73-3.47,3.16-4.68
		c1.43-1.21,3.33-1.77,5.16-2.31c1.88-0.56,3.66-1.09,4.58-2.19c0.92-1.1,1.14-2.94,1.36-4.88c0.22-1.9,0.45-3.87,1.39-5.5
		c0.93-1.61,2.51-2.78,4.04-3.91c1.59-1.17,3.08-2.28,3.58-3.65c0.48-1.33,0.06-3.12-0.4-5.01c-0.45-1.87-0.91-3.81-0.58-5.68
		c0.32-1.81,1.39-3.44,2.43-5.01c1.09-1.66,2.13-3.22,2.13-4.71c0-1.49-1.03-3.05-2.13-4.71c-1.04-1.58-2.12-3.2-2.43-5.01
		c-0.33-1.87,0.14-3.81,0.58-5.68c0.45-1.89,0.88-3.68,0.4-5.01c-0.5-1.37-2-2.48-3.58-3.65c-1.53-1.13-3.11-2.3-4.04-3.91
		c-0.94-1.63-1.17-3.6-1.39-5.5c-0.22-1.94-0.44-3.78-1.36-4.88c-0.93-1.11-2.7-1.63-4.58-2.19c-1.83-0.54-3.73-1.11-5.16-2.31
		c-1.43-1.2-2.31-2.97-3.16-4.67c-0.88-1.76-1.71-3.42-2.96-4.15c-1.24-0.71-3.07-0.6-5.03-0.49c-1.91,0.11-3.9,0.23-5.67-0.41
		c-1.73-0.63-3.16-1.98-4.53-3.28c-1.44-1.36-2.79-2.65-4.25-2.9c-1.37-0.24-3.06,0.49-4.83,1.26c-1.78,0.77-3.61,1.57-5.53,1.57
		c-1.92,0-3.75-0.8-5.53-1.57c-1.78-0.77-3.46-1.5-4.83-1.26c-1.45,0.25-2.81,1.54-4.25,2.9c-1.38,1.3-2.8,2.65-4.53,3.28
		c-1.77,0.65-3.75,0.53-5.67,0.41c-1.95-0.11-3.79-0.23-5.03,0.49c-1.26,0.73-2.08,2.39-2.96,4.15c-0.85,1.71-1.73,3.47-3.16,4.67
		c-1.43,1.21-3.33,1.77-5.16,2.31c-1.88,0.56-3.66,1.09-4.58,2.19c-0.92,1.1-1.14,2.94-1.36,4.88c-0.22,1.9-0.45,3.87-1.39,5.5
		c-0.93,1.61-2.51,2.78-4.04,3.91c-1.59,1.17-3.08,2.28-3.58,3.65c-0.48,1.33-0.06,3.12,0.4,5.01c0.45,1.87,0.91,3.81,0.58,5.68
		c-0.32,1.81-1.39,3.44-2.43,5.01c-1.1,1.66-2.13,3.22-2.13,4.71c0,1.49,1.03,3.05,2.13,4.71c1.04,1.58,2.12,3.2,2.43,5.01
		c0.33,1.87-0.14,3.81-0.58,5.68c-0.45,1.89-0.88,3.68-0.4,5.01c0.5,1.37,2,2.48,3.58,3.65c1.53,1.13,3.11,2.3,4.04,3.91
		c0.94,1.63,1.17,3.6,1.39,5.5c0.22,1.94,0.44,3.78,1.36,4.88c0.93,1.11,2.71,1.63,4.58,2.19c1.83,0.54,3.73,1.11,5.17,2.31
		c1.43,1.2,2.31,2.97,3.16,4.67c0.88,1.76,1.71,3.42,2.96,4.15c1.24,0.72,3.08,0.61,5.03,0.49
		C44.36,124.32,45.12,124.27,45.87,124.27z"/>
	<linearGradient id="SVGID_2_" gradientUnits="userSpaceOnUse" x1="19.9746" y1="29.9529" x2="142.6539" y2="136.9042">
		<stop  offset="0" style="stop-color:#001689"/>
		<stop  offset="1" style="stop-color:#E1251B"/>
	</linearGradient>
	<circle class="st1" cx="68.42" cy="72.19" r="51.57"/>
	<path class="st2" d="M68.42,120.5c-26.64,0-48.31-21.67-48.31-48.31s21.67-48.31,48.31-48.31s48.31,21.67,48.31,48.31
		S95.06,120.5,68.42,120.5z M68.42,24.88c-26.08,0-47.31,21.22-47.31,47.31c0,26.09,21.22,47.31,47.31,47.31
		c26.09,0,47.31-21.22,47.31-47.31C115.73,46.1,94.51,24.88,68.42,24.88z"/>
	<path class="st2" d="M59.49,95.02c-0.25,0-0.5-0.01-0.75-0.04c-1.88-0.23-3.55-1.28-4.56-2.88l-10.2-16.14
		c-1.85-2.93-0.98-6.81,1.95-8.67c2.93-1.85,6.81-0.98,8.67,1.95l6.08,9.62l26.5-25.56c2.5-2.41,6.47-2.34,8.88,0.16
		c2.41,2.5,2.34,6.47-0.16,8.88L63.85,93.26C62.67,94.39,61.11,95.02,59.49,95.02z"/>
	<linearGradient id="SVGID_3_" gradientUnits="userSpaceOnUse" x1="19.3904" y1="30.6231" x2="142.0697" y2="137.5743">
		<stop  offset="0" style="stop-color:#001689"/>
		<stop  offset="1" style="stop-color:#E1251B"/>
	</linearGradient>
	<path class="st3" d="M123.32,98.37l12.58,1.82c2.27,0.33,3.18,3.12,1.54,4.72l-9.09,8.88c-0.65,0.64-0.95,1.55-0.79,2.45
		l2.16,12.52c0.39,2.26-1.98,3.98-4.01,2.92l-11.25-5.91c-0.81-0.42-1.77-0.42-2.57,0l-11.24,5.92c-2.03,1.07-4.4-0.65-4.02-2.91
		l2.14-12.53c0.15-0.9-0.14-1.81-0.8-2.45l-9.11-8.86c-1.64-1.6-0.74-4.39,1.53-4.72l12.58-1.84c0.9-0.13,1.68-0.7,2.08-1.51
		l5.62-11.4c1.01-2.06,3.95-2.06,4.96,0l5.63,11.39C121.64,97.67,122.42,98.24,123.32,98.37z"/>
	<path class="st2" d="M113.12,83.92c0.99,0,1.97,0.51,2.48,1.54l5.63,11.39c0.4,0.82,1.18,1.38,2.08,1.51l12.58,1.82
		c2.27,0.33,3.18,3.12,1.54,4.72l-9.09,8.88c-0.65,0.64-0.95,1.55-0.79,2.45l2.16,12.52c0.31,1.79-1.11,3.24-2.73,3.24
		c-0.42,0-0.86-0.1-1.29-0.32l-11.25-5.91c-0.4-0.21-0.84-0.32-1.29-0.32c-0.44,0-0.89,0.11-1.29,0.32l-11.24,5.92
		c-0.42,0.22-0.86,0.32-1.29,0.32c-1.61,0-3.03-1.45-2.73-3.24l2.14-12.53c0.15-0.9-0.14-1.81-0.8-2.45l-9.11-8.86
		c-1.64-1.6-0.74-4.39,1.53-4.72l12.58-1.84c0.9-0.13,1.68-0.7,2.08-1.51l5.62-11.4C111.15,84.44,112.13,83.92,113.12,83.92
		 M113.12,78.71L113.12,78.71c-3.06,0-5.81,1.71-7.16,4.45l-5.05,10.25l-11.3,1.65c-3.03,0.44-5.5,2.53-6.44,5.44
		c-0.94,2.91-0.17,6.05,2.03,8.18l8.18,7.97l-1.92,11.26c-0.4,2.33,0.24,4.69,1.76,6.48c1.53,1.81,3.76,2.85,6.11,2.85
		c1.28,0,2.57-0.32,3.72-0.93l10.1-5.32l10.11,5.31c1.15,0.6,2.43,0.92,3.71,0.92c2.36,0,4.59-1.04,6.12-2.86
		c1.51-1.8,2.15-4.16,1.75-6.49l-1.94-11.26l8.17-7.98c2.19-2.14,2.96-5.27,2.01-8.18c-0.95-2.91-3.42-4.99-6.45-5.43l-11.3-1.63
		l-5.06-10.24C118.92,80.41,116.18,78.71,113.12,78.71L113.12,78.71z"/>
</g>
</svg>
