<?xml version="1.0" encoding="utf-8"?>
<!-- Generator: Adobe Illustrator 25.2.3, SVG Export Plug-In . SVG Version: 6.00 Build 0)  -->
<svg version="1.1" id="Capa_1" xmlns="http://www.w3.org/2000/svg" xmlns:xlink="http://www.w3.org/1999/xlink" x="0px" y="0px"
	 viewBox="0 0 38 38" style="enable-background:new 0 0 38 38;" xml:space="preserve">
<style type="text/css">
	.st0{fill:#FFFFFF;}
</style>
<g>
	<path class="st0" d="M35.84,15.27c-0.71-3.47-2.34-6.44-4.91-8.89c-3-2.86-6.59-4.42-10.72-4.7c-1.64-0.11-3.28,0.01-4.89,0.4
		c-4.74,1.14-8.38,3.81-10.89,7.98c-1.39,2.31-2.13,4.83-2.3,7.53c-0.08,1.26-0.02,2.52,0.19,3.76c0.33,1.98,0.98,3.84,1.97,5.59
		c0.04,0.08,0.06,0.2,0.03,0.28c-0.58,2.13-1.17,4.26-1.75,6.4c-0.2,0.72-0.4,1.45-0.61,2.21c0.09-0.02,0.13-0.02,0.18-0.04
		c2.88-0.75,5.76-1.5,8.63-2.25c0.14-0.04,0.26-0.02,0.39,0.05c2.19,1.15,4.52,1.8,6.99,1.94c1.57,0.09,3.13-0.02,4.66-0.37
		c4.04-0.93,7.35-3.03,9.88-6.33c2.01-2.63,3.15-5.6,3.4-8.91C36.23,18.36,36.15,16.81,35.84,15.27z M33.26,19.89
		c-0.32,3.34-1.67,6.21-4.01,8.59c-2.09,2.12-4.61,3.46-7.54,4c-1.01,0.19-2.03,0.28-3.06,0.23c-2.45-0.1-4.74-0.76-6.84-2.04
		c-0.29-0.18-0.54-0.21-0.86-0.12c-1.57,0.43-3.14,0.83-4.71,1.24c-0.06,0.01-0.12,0.02-0.21,0.04c0.29-1.05,0.57-2.06,0.84-3.06
		c0.18-0.64,0.34-1.28,0.53-1.91c0.05-0.16,0.03-0.28-0.06-0.42c-0.82-1.24-1.44-2.57-1.85-4c-0.43-1.51-0.63-3.06-0.51-4.62
		c0.43-5.31,3.03-9.23,7.7-11.77c1.4-0.76,2.91-1.23,4.49-1.42c4.42-0.55,8.32,0.64,11.62,3.65c2.1,1.92,3.48,4.28,4.14,7.06
		C33.29,16.83,33.41,18.35,33.26,19.89z"/>
	<path class="st0" d="M27.14,22.28c-0.47-0.23-0.94-0.47-1.42-0.69c-0.61-0.29-1.22-0.58-1.85-0.84c-0.4-0.17-0.58-0.07-0.85,0.27
		c-0.44,0.56-0.89,1.11-1.35,1.65c-0.2,0.24-0.45,0.3-0.74,0.17c-0.14-0.06-0.27-0.12-0.41-0.18c-2.39-0.99-4.19-2.65-5.51-4.85
		c-0.25-0.41-0.22-0.6,0.1-0.95c0.4-0.44,0.82-0.87,1.07-1.42c0.11-0.25,0.12-0.48,0.02-0.73c-0.28-0.67-0.56-1.33-0.84-2
		c-0.18-0.43-0.36-0.87-0.54-1.31c-0.17-0.4-0.44-0.68-0.92-0.62c-0.11,0.01-0.23,0-0.35,0c0-0.01,0-0.01,0-0.02
		c-0.25,0.01-0.51,0.01-0.75,0.05c-0.4,0.07-0.68,0.34-0.96,0.63c-0.9,0.94-1.34,2.06-1.34,3.36c0,0.91,0.26,1.76,0.64,2.58
		c0.49,1.07,1.2,2.01,1.92,2.93c1.27,1.62,2.72,3.05,4.44,4.2c1.34,0.89,2.82,1.46,4.34,1.95c0.91,0.29,1.84,0.35,2.77,0.19
		c0.78-0.14,1.46-0.54,2.08-1.02c0.47-0.37,0.8-0.84,0.91-1.44c0.05-0.26,0.13-0.52,0.15-0.78C27.79,22.61,27.83,22.61,27.14,22.28z
		"/>
</g>
</svg>
