<?xml version="1.0" encoding="utf-8"?>
<!-- Generator: Adobe Illustrator 22.0.0, SVG Export Plug-In . SVG Version: 6.00 Build 0)  -->
<svg version="1.1" id="Capa_1" xmlns="http://www.w3.org/2000/svg" xmlns:xlink="http://www.w3.org/1999/xlink" x="0px" y="0px"
	 viewBox="0 0 119.1 119.1" style="enable-background:new 0 0 119.1 119.1;" xml:space="preserve">
<style type="text/css">
	.st0{clip-path:url(#SVGID_2_);fill:#FFFFFF;}
</style>
<g>
	<defs>
		<rect id="SVGID_1_" x="1.2" y="3.8" width="116.6" height="111.5"/>
	</defs>
	<clipPath id="SVGID_2_">
		<use xlink:href="#SVGID_1_"  style="overflow:visible;"/>
	</clipPath>
	<path class="st0" d="M83.1,37.3l29.2,4.2c5.3,0.8,7.4,7.2,3.6,10.9L94.8,73c-1.5,1.5-2.2,3.6-1.8,5.7l5,29c0.9,5.2-4.6,9.2-9.3,6.8
		l-26.1-13.7c-1.9-1-4.1-1-6,0l-26.1,13.7c-4.7,2.5-10.2-1.5-9.3-6.8l5-29.1c0.4-2.1-0.3-4.2-1.9-5.7L3.2,52.5
		c-3.8-3.7-1.7-10.2,3.5-10.9l29.2-4.3c2.1-0.3,3.9-1.6,4.8-3.5l13-26.4c2.3-4.8,9.1-4.8,11.5,0l13.1,26.4
		C79.3,35.6,81.1,37,83.1,37.3"/>
</g>
</svg>
